<?xml version="1.0" encoding="UTF-8" standalone="no"?>
<!-- Created with Inkscape (http://www.inkscape.org/) -->

<svg
   version="1.1"
   id="svg1"
   width="547.17114"
   height="578.83698"
   viewBox="0 0 547.17114 578.83698"
   sodipodi:docname="hs-wedding-logo.svg"
   inkscape:version="1.3.2 (091e20e, 2023-11-25)"
   xmlns:inkscape="http://www.inkscape.org/namespaces/inkscape"
   xmlns:sodipodi="http://sodipodi.sourceforge.net/DTD/sodipodi-0.dtd"
   xmlns="http://www.w3.org/2000/svg"
   xmlns:svg="http://www.w3.org/2000/svg">
  <defs
     id="defs1" />
  <sodipodi:namedview
     id="namedview1"
     pagecolor="#ffffff"
     bordercolor="#000000"
     borderopacity="0.25"
     inkscape:showpageshadow="2"
     inkscape:pageopacity="0.0"
     inkscape:pagecheckerboard="0"
     inkscape:deskcolor="#d1d1d1"
     inkscape:zoom="0.49889412"
     inkscape:cx="470.03962"
     inkscape:cy="237.52535"
     inkscape:window-width="1680"
     inkscape:window-height="936"
     inkscape:window-x="0"
     inkscape:window-y="25"
     inkscape:window-maximized="0"
     inkscape:current-layer="g1" />
  <g
     inkscape:groupmode="layer"
     inkscape:label="Image"
     id="g1"
     transform="translate(-174.49765,-164.64)">
    <path
       style="fill:#000000"
       d="m 487.24619,742.5315 c -16.19341,-2.33352 -36.35882,-10.42406 -48.23719,-19.35319 -16.70321,-12.55603 -30.66841,-32.70395 -35.94904,-51.86452 -2.46369,-8.93941 -2.43545,-34.71193 0.0479,-43.67379 4.19622,-15.14351 13.34007,-29.74082 23.87882,-38.12033 9.40162,-7.47537 24.12559,-12.84034 35.25956,-12.84753 5.66167,-0.004 15.70246,2.53002 21.33261,5.38304 5.45337,2.76343 11.80378,9.2879 12.76404,13.11389 1.07977,4.30213 -0.32062,9.78976 -3.11865,12.22093 -3.91342,3.40031 -7.7568,2.88363 -14.68134,-1.97366 -5.34788,-3.75132 -6.76353,-4.26459 -12.65895,-4.58972 -19.34051,-1.06663 -33.77115,14.62783 -37.06709,40.31338 -4.34157,33.83419 17.84585,67.31421 52.42938,79.11405 6.64447,2.26708 10.21066,2.80382 21.04675,3.16766 15.03653,0.50488 21.46196,-0.71395 33.34022,-6.32424 8.48886,-4.00942 21.19103,-15.83479 25.19683,-23.45747 8.1298,-15.47052 10.3169,-25.4715 9.6989,-44.35124 -0.4128,-12.60897 -0.8141,-15.18263 -3.6872,-23.64876 -3.943,-11.61872 -10.3204,-23.8967 -17.89215,-34.44686 l -5.7034,-7.94685 -8.5,-2.13103 c -19.7187,-4.94368 -28.51623,-8.73859 -52,-22.43079 -8.525,-4.97049 -18.89596,-10.35918 -23.04657,-11.97486 -16.21082,-6.31025 -34.63419,-6.29712 -52.6124,0.0375 -10.3777,3.65659 -39.5151,16.12168 -42.95816,18.37766 l -2.38287,1.56134 v 66.42772 c 0,44.03015 0.36629,68.13567 1.08635,71.49322 2.57587,12.01086 10.76225,18.71392 23.98514,19.63919 10.57988,0.74033 11.72544,1.09853 13.29861,4.15825 1.77737,3.45686 0.1744,9.16431 -3.01965,10.75157 -1.47222,0.73161 -21.93153,0.98973 -64.92913,0.81916 -60.35233,-0.23942 -62.85368,-0.32314 -64.69584,-2.16529 -1.14901,-1.14901 -1.95885,-3.41938 -2.02266,-5.67047 -0.16489,-5.81704 2.1812,-7.09204 14.27627,-7.75851 11.60507,-0.63948 19.37681,-3.62329 23.11645,-8.87512 4.84385,-6.80256 4.96805,-8.54054 4.97288,-69.58711 l 0.005,-57.22128 4.21353,-1.0768 c 9.06534,-2.31672 15.09098,-5.43565 20.91046,-10.82345 9.98915,-9.2482 15.09884,-22.59849 12.8308,-33.52359 -3.36457,-16.20703 -17.43765,-23.14834 -35.57438,-17.54648 -9.10741,2.81299 -16.06756,9.32224 -20.93665,19.58029 -1.93419,4.0749 -3.51671,7.61673 -3.51671,7.87075 0,1.18958 7.35811,0.22836 15.50703,-2.02574 10.42863,-2.8847 20.13522,-3.25055 24.99958,-0.94226 3.83501,1.81983 6.4079,6.75649 4.82731,9.26225 -0.55368,0.87775 -5.46781,3.62141 -10.9203,6.09701 -9.88273,4.48707 -9.94946,4.50121 -21.41362,4.53584 -6.325,0.0191 -13.34529,-0.33096 -15.60064,-0.77792 l -4.10064,-0.81267 -1.89936,6.31267 c -1.44777,4.81178 -1.89936,9.42635 -1.89936,19.40877 0,14.16902 -0.51101,15.79052 -5.26258,16.69884 -13.1605,2.51579 -14.57543,-21.32557 -2.86625,-48.2958 0.45645,-1.05137 -0.32514,-1.92139 -2.60979,-2.90505 -1.79376,-0.77232 -7.1262,-5.28711 -11.84987,-10.03289 -6.44511,-6.47526 -9.51727,-10.50794 -12.31011,-16.15887 -5.67551,-11.48267 -5.03965,-18.90234 1.61945,-18.90234 7.93399,0 17.2026,8.33103 24.03543,21.60408 6.46288,12.55443 7.13742,12.96952 10.18562,6.26792 2.80788,-6.17324 5.064,-21.00961 4.13595,-27.19827 -1.52892,-10.19559 -10.76074,-22.73321 -20.73896,-28.16534 -6.41602,-3.49288 -11.48943,-3.61555 -23.24932,-0.56217 -13.23921,3.43749 -24.9943,2.22419 -35.88631,-3.70399 -6.04983,-3.29273 -17.3081,-13.57305 -22.2767,-20.34164 l -3.67557,-5.00713 2.22562,-2.36906 c 2.72764,-2.90344 14.41848,-8.6925 22.52292,-11.15287 4.13263,-1.2546 9.2679,-1.82929 16.5,-1.84652 9.79507,-0.0233 10.96004,0.19287 17.35236,3.22035 8.15447,3.86205 15.47324,11.15357 18.8302,18.76007 2.13904,4.84682 2.80866,5.44642 9.80662,8.78106 4.61496,2.1991 10.1764,6.00591 14.42439,9.87349 l 6.91357,6.29446 -0.6759,-9.61546 c -0.9032,-12.84913 -3.7174,-23.55956 -8.88281,-33.80668 l -4.26843,-8.46769 -9.89297,-3.73565 c -23.8011,-8.98745 -37.09389,-24.21254 -42.03809,-48.14892 -2.46444,-11.93109 -1.82951,-47.7528 0.89468,-50.477 1.25384,-1.25384 12.09845,2.29356 22.19246,7.25941 27.19052,13.37665 41.99572,32.35506 44.78689,57.41119 0.6025,5.40856 -0.95928,20.69464 -2.5415,24.87526 -0.6256,1.653 0.12627,4.89527 2.83754,12.23616 2.02876,5.493 4.06431,9.61162 4.52342,9.15251 0.45912,-0.45912 2.6164,-6.19039 4.79395,-12.73616 2.17756,-6.54578 4.15773,-12.44088 4.40038,-13.10022 0.32315,-0.87809 1.32431,-0.74433 3.74221,0.5 2.45825,1.26509 5.8541,1.69881 13.30103,1.69881 9.16445,0 10.43725,-0.24228 15.23302,-2.89969 7.52282,-4.16849 12.04856,-9.07779 16.03413,-17.39303 3.22244,-6.72307 3.45659,-7.83607 2.99776,-14.24892 -0.64685,-9.04057 -3.75081,-14.08868 -9.95291,-16.18686 -7.12729,-2.41118 -13.796,-0.3749 -18.20747,5.55961 -1.85739,2.49865 -2.10453,4.20142 -2.10453,14.5 0,12.95159 -0.72345,15.19038 -5.55543,17.19185 -4.1624,1.72412 -7.74006,0.40425 -10.66363,-3.93404 -5.70246,-8.46188 0.0504,-31.27029 10.01251,-39.69642 15.55965,-13.1607 38.65721,-9.08853 47.32535,8.34359 2.63019,5.28947 2.85953,6.62819 2.78616,16.26391 -0.0663,8.71275 -0.53315,11.76387 -2.74246,17.92515 -1.46437,4.08384 -2.6625,7.57134 -2.6625,7.75 0,0.17867 14.625,0.32485 32.5,0.32485 25.33377,0 32.49982,-0.27562 32.49918,-1.25 -4.5e-4,-0.6875 -0.72145,-4.625 -1.60223,-8.75 -2.34644,-10.98922 -1.40725,-32.15288 2.01574,-45.4224 2.93772,-11.38831 11.31583,-29.01557 18.09802,-38.0776 11.34681,-15.16107 29.33374,-30.39276 45.42766,-38.46907 16.87758,-8.46957 30.74796,-11.96832 51.06163,-12.8801 l 14.5,-0.65083 -0.12461,-36.31436 -0.12461,-36.31437 -2.87539,-5.68563 c -3.98508,-7.87987 -8.89678,-10.29466 -22.59029,-11.10627 -8.88685,-0.52672 -10.17859,-0.84709 -11.87816,-2.94596 -2.8246,-3.48824 -2.49298,-8.52727 0.72792,-11.06083 2.6027,-2.04728 3.40886,-2.07258 66.04549,-2.07258 h 63.4106 l 2.4545,2.45455 c 3.2473,3.24734 3.2473,7.84356 0,11.0909 -2.2465,2.24653 -3.226,2.45455 -11.5572,2.45455 -20.1064,0 -27.4713,5.28485 -29.9735,21.50843 -0.7476,4.84728 -0.9919,58.28652 -0.7965,174.24166 0.1549,91.98755 0.2184,167.25005 0.1409,167.25 -0.078,-5e-5 -3.6693,-4.38759 -7.982,-9.75009 -4.3126,-5.3625 -16.0617,-19.59777 -26.1091,-31.63393 l -18.26805,-21.88393 v -22.39745 c 0,-17.12309 -0.29754,-22.51164 -1.2635,-22.88231 -0.69492,-0.26667 -13.72896,-0.36504 -28.96452,-0.21861 l -27.70103,0.26623 5.71453,7.34617 c 9.51152,12.2273 30.07037,37.89872 41.37847,51.66846 33.33,40.58559 48.9535,60.54994 55.551,70.98537 16.6744,26.37469 23.3796,56.86968 18.7631,85.3348 -3.4652,21.36633 -13.6389,41.8702 -28.6537,57.74796 -17.6454,18.65952 -37.88791,29.34257 -64.20534,33.88453 -9.48992,1.6378 -27.28594,1.84118 -37.11901,0.42421 z m 39.5,-183.44488 c 0,-0.89688 -10.42175,-13.80026 -24.94811,-30.88878 -7.45354,-8.76819 -14.67689,-17.36971 -16.05189,-19.11448 -1.375,-1.74478 -8.43061,-10.42634 -15.67913,-19.29237 -15.16766,-18.5523 -28.0231,-36.26641 -34.39086,-47.38873 l -4.43001,-7.73773 -44.5,-0.01 -44.5,-0.01 -9.08561,7.31701 c -7.51993,6.05634 -22.78161,15.67846 -24.86729,15.67846 -0.3009,0 -0.5471,-4.60013 -0.5471,-10.22251 0,-12.1937 -0.41257,-11.92055 -7.0068,4.63909 l -4.3471,10.91657 -0.073,24.33344 c -0.0402,13.38339 0.15374,24.33343 0.43093,24.33342 0.27718,0 3.42718,-2.97364 7,-6.60807 3.57281,-3.63443 9.25925,-8.58878 12.63654,-11.00965 5.11338,-3.66533 6.25569,-5.02725 6.82903,-8.14194 0.98133,-5.33115 3.98234,-11.76049 7.65225,-16.39413 4.61364,-5.8252 16.15415,-13.5406 23.80602,-15.91551 14.83898,-4.60558 35.96582,-1.21551 47.56629,7.6326 5.65297,4.31173 6.1194,5.94389 2.98936,10.46054 -4.51553,6.51591 -21.85324,22.6231 -27.34919,25.4081 -11.33958,5.74621 -23.71165,6.81908 -40.21298,3.48718 -5.18809,-1.04756 -5.92328,-0.94899 -10.5,1.40785 -2.70671,1.39386 -6.26351,3.803 -7.90398,5.35365 l -2.98269,2.81937 9.59436,0.56497 c 12.22365,0.71981 18.44649,3.54894 26.18057,11.90268 5.95811,6.43546 8.69044,12.64244 8.69044,19.74187 0,2.6631 0.50784,4.54813 1.30803,4.85519 0.71941,0.27606 9.15691,-3.29868 18.75,-7.94387 9.59308,-4.6452 20.93162,-9.59372 25.19675,-10.99672 10.56764,-3.47619 23.17103,-5.01128 35.24522,-4.29286 17.23171,1.02529 27.85246,4.9754 52.02229,19.34835 20.99105,12.48267 33.47766,18.36349 33.47766,15.76701 z M 365.23037,482.66585 c 6.26388,-3.05515 14.10554,-10.83579 12.51993,-12.42251 -0.63498,-0.63543 -4.7924,-1.10334 -9.80334,-1.10334 -7.47008,0 -9.47872,0.38654 -14.20077,2.7328 -6.05854,3.01032 -14.59723,10.58996 -13.31396,11.81857 2.91022,2.78624 18.28676,2.15034 24.79814,-1.02552 z M 236.40259,470.31693 c 1.36815,-1.36815 -3.30959,-6.20303 -8.63679,-8.92693 -3.97233,-2.03113 -6.83446,-2.74854 -10.94892,-2.74442 -6.09546,0.006 -13.07069,1.58433 -13.07069,2.95739 0,1.24579 7.21007,6.78258 11.15377,8.56525 3.43264,1.55167 19.9852,1.66614 21.50263,0.14871 z m 33.2985,-62.37771 c 0.10198,-14.02015 -4.46463,-24.89104 -14.76912,-35.15816 -4.1354,-4.1204 -9.4118,-8.08811 -13.83201,-10.40129 -3.93043,-2.05688 -7.41793,-3.73977 -7.75,-3.73977 -1.23486,0 -0.55039,18.78476 0.88532,24.29681 3.74848,14.39137 13.65851,27.13611 25.84226,33.23426 l 7.16865,3.58802 1.2049,-2.80955 c 0.66269,-1.54525 1.22519,-5.59989 1.25,-9.01032 z m 283.43811,6.11899 c 0.33385,-0.86998 0.60699,-28.94684 0.60699,-62.39301 0,-54.52939 -0.1634,-60.87392 -1.58179,-61.41821 -2.85113,-1.09408 -21.75536,-0.5667 -29.41821,0.8207 -15.00137,2.71608 -30.42293,10.34399 -39.88787,19.7296 -7.0298,6.97087 -9.34612,10.0806 -12.91794,17.34271 -5.55767,11.29969 -6.66635,16.66685 -6.61013,32 0.048,13.08193 0.26328,14.62297 3.28338,23.5 3.06969,9.02277 8.48809,20.01689 13.9229,28.25 l 2.47543,3.75 h 34.76013 c 30.77419,0 34.82973,-0.18138 35.36711,-1.58179 z m 66.88694,156.63755 c -2.8454,-4.40197 -4.8562,-8.19965 -4.4684,-8.43928 1.5218,-0.94053 16.6595,-3.68245 25.4332,-4.60677 14.2173,-1.49781 72.6656,-1.27847 75.7552,0.2843 5.1186,2.58902 6.1855,9.5205 2.0951,13.61096 -1.7137,1.71372 -4.532,1.89514 -37.2246,2.39626 -33.6523,0.51584 -38.9689,0.92584 -53.559,4.13035 -2.687,0.59018 -3.1678,0.14863 -8.0315,-7.37582 z m -423.36661,1.66244 c -4.2637,-3.27357 -4.73727,-9.75759 -0.96217,-13.17401 1.56615,-1.41734 4.74743,-1.69136 21.52122,-1.85369 l 19.68341,-0.1905 2.52456,2.92488 c 2.03641,2.35932 2.41395,3.61618 1.95252,6.5 -1.0682,6.67587 -2.44193,7.07913 -23.99366,7.04332 -13.46642,-0.0224 -19.6095,-0.39288 -20.72588,-1.25 z m 426.12561,-86.90676 c -3.5212,-3.77954 -2.6557,-7.30946 3.3431,-13.63568 12.8778,-13.58066 22.3178,-33.817 25.7388,-55.17576 1.6017,-10.00022 1.6165,-34.00939 0.026,-41.5 -4.5704,-21.51949 -11.9076,-35.67489 -26.678,-51.46888 l -7.4686,-7.98622 V 301.56425 287.4436 l 2.9,1.8482 c 6.4703,4.12358 23.7523,19.21878 28.4431,24.84406 19.1659,22.98385 29.1047,52.74728 27.204,81.46694 -1.994,30.13047 -10.8661,54.78232 -26.8071,74.48598 -13.0317,16.10758 -21.479,20.96782 -26.701,15.36266 z m 53.461,-9.01926 c -4.784,-2.74364 -5.9843,-8.73578 -2.5902,-12.9314 1.8759,-2.31895 2.2661,-2.36625 22.0185,-2.66924 l 20.1087,-0.30845 2.9815,2.98153 c 3.8532,3.85317 3.8717,7.3991 0.058,11.2123 l -2.923,2.92308 -18.8269,-0.0304 c -12.277,-0.0198 -19.5228,-0.42945 -20.827,-1.17741 z M 355.24619,346.48954 c -12.8849,-5.99053 -27.88391,-5.79452 -42.71788,0.55825 -2.04484,0.87571 -3.94647,1.59221 -4.22586,1.59221 -0.27939,0 -0.63134,-34.3125 -0.78212,-76.25 -0.25952,-72.18252 -0.37358,-76.4367 -2.1383,-79.75 -4.82598,-9.06087 -11.16048,-12 -25.8628,-12 -8.07777,0 -9.08165,-0.2177 -11.31849,-2.45455 -3.44105,-3.44104 -3.35856,-8.68919 0.18031,-11.47287 2.60169,-2.04649 3.42053,-2.07258 65.04545,-2.07258 h 62.4106 l 2.45454,2.45455 c 3.09313,3.09312 3.12554,6.65385 0.0927,10.17977 -2.1954,2.5523 -3.05884,2.7879 -12.25,3.34256 -12.27572,0.74079 -17.56044,3.22194 -21.37556,10.03569 l -2.51259,4.48743 -0.5,77.06955 -0.5,77.06955 z"
       id="path1" />
  </g>
</svg>
