<?xml version="1.0" standalone="no"?>
<!DOCTYPE svg PUBLIC "-//W3C//DTD SVG 20010904//EN"
 "http://www.w3.org/TR/2001/REC-SVG-20010904/DTD/svg10.dtd">
<svg version="1.0" xmlns="http://www.w3.org/2000/svg"
 width="256.000000pt" height="256.000000pt" viewBox="0 0 256.000000 256.000000"
 preserveAspectRatio="xMidYMid meet">
<metadata>
Created by potrace 1.11, written by Peter Selinger 2001-2013
</metadata>
<g transform="translate(0.000000,256.000000) scale(0.100000,-0.100000)"
fill="#000000" stroke="none">
<path d="M617 2284 c-1 -1 -24 -5 -52 -8 -116 -15 -262 -81 -341 -154 -192
-177 -275 -452 -169 -559 7 -7 33 -23 57 -36 38 -20 58 -23 118 -18 35 3 77
139 49 157 -5 3 -9 1 -9 -4 0 -6 -12 -13 -28 -18 -74 -21 -132 11 -132 75 0
50 82 163 166 228 49 38 168 102 226 123 68 24 171 41 219 36 48 -5 109 -25
109 -37 0 -5 5 -9 11 -9 13 0 44 -35 66 -75 32 -57 45 -161 34 -262 -1 -8 -17
-13 -44 -13 -54 0 -137 -40 -173 -83 -37 -43 -84 -146 -84 -181 0 -55 -9 -21
-24 94 -8 63 -18 136 -22 162 -10 71 -61 118 -142 133 -45 8 -51 -4 -57 -110
-2 -55 -7 -122 -9 -150 -3 -27 -8 -81 -10 -120 -3 -38 -8 -90 -10 -115 -3 -25
-8 -81 -11 -125 -3 -44 -8 -100 -10 -125 -10 -110 -19 -297 -19 -440 l-1 -155
38 -72 c45 -83 105 -148 143 -156 19 -3 34 2 54 22 26 23 29 34 34 111 6 85
13 172 21 265 9 105 17 223 21 295 2 41 5 80 5 85 1 6 0 15 -1 20 -1 6 -2 57
-1 115 l1 105 26 -45 c14 -25 43 -63 64 -85 32 -33 50 -69 95 -189 75 -201
130 -304 208 -387 29 -32 33 -49 17 -77 -5 -9 -22 -44 -38 -77 -34 -72 -79
-145 -90 -145 -25 1 -52 60 -54 119 -1 20 -8 33 -24 42 -13 7 -26 20 -30 31
-7 23 -15 23 -36 -1 -34 -40 -43 -132 -19 -191 14 -37 62 -85 97 -99 68 -27
206 -4 296 47 196 112 346 399 487 927 l18 70 129 -3 c71 -2 132 -7 136 -10 3
-4 12 -34 18 -67 19 -102 20 -107 46 -210 88 -348 196 -515 337 -519 34 -1 44
5 74 39 19 22 52 76 73 120 39 83 88 240 78 251 -18 18 -45 -22 -71 -103 -43
-132 -107 -253 -135 -253 -26 0 -76 134 -160 430 -105 369 -263 1001 -287
1145 -16 97 -31 152 -47 172 -20 25 -66 25 -120 0 -70 -33 -78 -35 -108 -27
-21 6 -26 4 -27 -12 -5 -56 -65 -295 -139 -549 -3 -12 -15 -15 -58 -11 -43 3
-65 -1 -108 -20 -49 -23 -128 -91 -128 -110 0 -4 -4 -8 -9 -8 -19 0 -16 36 6
76 76 136 89 326 32 452 -25 54 -41 74 -119 147 -36 33 -172 96 -241 111 -60
13 -204 25 -212 18z m1217 -390 c4 -21 8 -50 11 -64 3 -21 13 -105 29 -240 13
-105 17 -137 21 -155 2 -11 7 -47 10 -80 4 -33 8 -64 9 -70 1 -12 -179 -9
-242 4 -2 1 -1 5 2 9 3 5 7 19 9 33 3 13 14 67 25 119 12 52 23 109 26 125 6
33 22 115 31 155 3 14 12 66 20 115 9 50 19 99 22 110 6 19 6 19 14 -1 4 -12
10 -39 13 -60z m-619 -981 c-4 -10 -16 -42 -27 -70 -22 -59 -34 -66 -44 -25
-4 15 -11 32 -16 39 -7 8 3 21 33 42 48 35 64 39 54 14z"/>
</g>
</svg>
